<svg width="82" height="18" viewBox="0 0 82 18" fill="none" xmlns="http://www.w3.org/2000/svg">
<path d="M18.4787 3.83781e-10C18.5807 -4.97941e-06 18.6786 0.0484522 18.751 0.134827C18.8235 0.221203 18.8646 0.338505 18.8656 0.461209V17.1486C18.8656 17.2713 18.8253 17.3891 18.7535 17.4762C18.6817 17.5634 18.5842 17.6129 18.4822 17.614H16.5932C16.4912 17.6129 16.3937 17.5634 16.3219 17.4762C16.2501 17.3891 16.2098 17.2713 16.2098 17.1486V6.29342C16.0611 6.43877 15.9078 6.57853 15.7498 6.7127C15.3002 7.09006 14.8436 7.40871 14.401 7.71898C13.9584 8.02925 13.6656 8.27243 13.3171 8.51981C12.6646 8.97317 12.0965 9.58301 11.648 10.3115C11.1996 11.0399 10.8803 11.8715 10.7101 12.7546C10.691 12.8573 10.6433 12.9491 10.5748 13.0147C10.5063 13.0803 10.4212 13.1158 10.3337 13.1151H8.53185C8.44432 13.1158 8.35924 13.0803 8.29077 13.0147C8.22229 12.9491 8.17454 12.8573 8.15544 12.7546C7.98526 11.8704 7.66569 11.0378 7.2166 10.3085C6.76752 9.5793 6.19852 8.96901 5.545 8.51561C5.19648 8.26824 4.84796 7.99571 4.4611 7.71479C4.07424 7.43387 3.56191 7.08586 3.11231 6.70851C2.95431 6.57714 2.80097 6.43738 2.65226 6.28923V17.1486C2.65227 17.2713 2.61199 17.3891 2.54019 17.4762C2.46839 17.5634 2.37088 17.6129 2.26889 17.614H0.383375C0.281378 17.6129 0.183872 17.5634 0.112074 17.4762C0.0402754 17.3891 -4.13907e-06 17.2713 3.19013e-10 17.1486V0.465403C3.19013e-10 0.341971 0.0407584 0.223593 0.113309 0.136313C0.185859 0.0490334 0.284259 3.83781e-10 0.386861 3.83781e-10H2.25146C2.34227 0.00150843 2.42974 0.0413997 2.49855 0.11269C2.56737 0.18398 2.61315 0.282124 2.62787 0.389932C2.73242 1.20334 3.12974 3.10269 4.58308 4.16347C4.96645 4.436 5.34634 4.74208 5.76457 5.03977C6.1828 5.33746 6.59057 5.60999 6.98789 5.94542C7.79925 6.59434 8.52526 7.38577 9.14176 8.2934C9.17667 8.34661 9.22114 8.38962 9.27185 8.4192C9.32256 8.44877 9.37817 8.46413 9.43452 8.46413C9.49087 8.46413 9.54649 8.44877 9.5972 8.4192C9.6479 8.38962 9.69238 8.34661 9.72728 8.2934C10.3425 7.3846 11.0673 6.59175 11.8777 5.94122C12.2924 5.6058 12.7246 5.30392 13.1045 5.03558C13.4844 4.76723 13.9096 4.436 14.2825 4.16347C15.7393 3.11946 16.1366 1.2285 16.2412 0.389932C16.2559 0.282124 16.3017 0.18398 16.3705 0.11269C16.4393 0.0413997 16.5268 0.00150843 16.6176 3.83781e-10H18.4787Z" fill="#3A3845"/>
<path d="M38.5887 8.80702C38.5887 13.6593 34.7433 17.614 30.0135 17.614C25.2837 17.614 21.4382 13.6635 21.4382 8.80702C21.4382 3.95058 25.2837 0 30.0135 0C34.7433 0 38.5887 3.95058 38.5887 8.80702ZM30.0135 3.19988C26.773 3.19988 24.1375 5.71617 24.1375 8.80702C24.1375 11.8979 26.773 14.3932 30.0135 14.3932C33.254 14.3932 35.8931 11.8769 35.8931 8.79024C35.8931 5.70359 33.254 3.19988 30.0135 3.19988Z" fill="#3A3845"/>
<path d="M58.3119 8.80702C58.3119 13.6593 54.2742 17.614 49.3078 17.614C44.3415 17.614 40.3038 13.6635 40.3038 8.80702C40.3038 3.95058 44.3415 0 49.3078 0C54.2742 0 58.3119 3.95058 58.3119 8.80702ZM49.3078 3.19988C45.9053 3.19988 43.1343 5.71617 43.1343 8.80702C43.1343 11.8979 45.9053 14.3932 49.3078 14.3932C52.7104 14.3932 55.4777 11.8769 55.4777 8.79024C55.4777 5.70359 52.6992 3.19988 49.3078 3.19988Z" fill="#3A3845"/>
<path d="M73.657 8.67701V0.461319C73.657 0.400738 73.667 0.34075 73.6863 0.28478C73.7056 0.22881 73.7339 0.177955 73.7696 0.135117C73.8053 0.0922796 73.8477 0.0582994 73.8943 0.0351159C73.9409 0.0119324 73.9909 0 74.0414 0H75.9355C75.9859 0 76.0359 0.0119324 76.0826 0.0351159C76.1292 0.0582994 76.1716 0.0922796 76.2073 0.135117C76.243 0.177955 76.2713 0.22881 76.2906 0.28478C76.3099 0.34075 76.3199 0.400738 76.3199 0.461319V17.1527C76.3199 17.2133 76.3099 17.2733 76.2906 17.3293C76.2713 17.3852 76.243 17.4361 76.2073 17.4789C76.1716 17.5218 76.1292 17.5557 76.0826 17.5789C76.0359 17.6021 75.9859 17.614 75.9355 17.614H74.0589C74.0084 17.614 73.9584 17.6021 73.9118 17.5789C73.8651 17.5557 73.8228 17.5218 73.7871 17.4789C73.7514 17.4361 73.7231 17.3852 73.7037 17.3293C73.6844 17.2733 73.6745 17.2133 73.6745 17.1527V15.84C73.6764 15.4291 73.5999 15.0232 73.4508 14.6532C72.8952 13.3028 71.4589 10.8033 68.1042 9.27253C66.687 8.644 65.3596 7.75554 64.1693 6.63881C64.1131 6.58366 64.0449 6.54892 63.9729 6.53869C63.9008 6.52845 63.8278 6.54315 63.7624 6.58104C63.697 6.61894 63.6421 6.67846 63.604 6.75259C63.5658 6.82672 63.5462 6.91238 63.5473 6.99948V17.1527C63.5473 17.2751 63.5068 17.3924 63.4347 17.4789C63.3626 17.5654 63.2648 17.614 63.1629 17.614H61.2688C61.1668 17.614 61.0691 17.5654 60.997 17.4789C60.9249 17.3924 60.8844 17.2751 60.8844 17.1527V0.461319C60.8844 0.33897 60.9249 0.221631 60.997 0.135117C61.0691 0.0486029 61.1668 0 61.2688 0H63.1104C63.1868 0.00182585 63.261 0.0311992 63.3234 0.0843022C63.3857 0.137405 63.4333 0.211781 63.4599 0.297761C63.7639 1.2875 65.0289 4.49158 69.0302 6.27815C70.4782 6.91363 71.8245 7.84278 73.0105 9.0251C73.0662 9.08293 73.1345 9.12037 73.2074 9.13295C73.2803 9.14553 73.3546 9.13272 73.4216 9.09606C73.4886 9.0594 73.5454 9.00041 73.5853 8.92612C73.6252 8.85184 73.6464 8.76537 73.6465 8.67701H73.657Z" fill="#3A3845"/>
<path d="M78.8925 15.8527C78.8925 15.5041 78.968 15.1634 79.1095 14.8737C79.2509 14.5839 79.452 14.3582 79.6872 14.225C79.9225 14.0918 80.1812 14.0572 80.4308 14.1255C80.6804 14.1938 80.9096 14.362 81.0894 14.6087C81.2692 14.8555 81.3914 15.1698 81.4407 15.5117C81.49 15.8537 81.4641 16.208 81.3662 16.5298C81.2684 16.8515 81.103 17.1263 80.8911 17.3194C80.6791 17.5124 80.4301 17.615 80.1756 17.6141C80.0068 17.6141 79.8397 17.5685 79.6838 17.4799C79.5279 17.3914 79.3864 17.2616 79.2672 17.0979C79.148 16.9343 79.0535 16.7401 78.9892 16.5264C78.9249 16.3128 78.892 16.0838 78.8925 15.8527Z" fill="#3A3845"/>
</svg>
